<svg width="123" height="99" viewBox="0 0 123 99" fill="none" xmlns="http://www.w3.org/2000/svg">
<g filter="url(#filter0_d_143_328)">
<path d="M61.5 19C58.5992 19 55.8172 20.3433 53.766 22.7344C51.7148 25.1255 50.5625 28.3685 50.5625 31.75C50.5625 35.1315 51.7148 38.3745 53.766 40.7656C55.8172 43.1567 58.5992 44.5 61.5 44.5C64.4008 44.5 67.1828 43.1567 69.234 40.7656C71.2852 38.3745 72.4375 35.1315 72.4375 31.75C72.4375 28.3685 71.2852 25.1255 69.234 22.7344C67.1828 20.3433 64.4008 19 61.5 19ZM61.5 26.2857C62.7432 26.2857 63.9355 26.8614 64.8146 27.8862C65.6936 28.9109 66.1875 30.3008 66.1875 31.75C66.1875 33.1992 65.6936 34.5891 64.8146 35.6138C63.9355 36.6386 62.7432 37.2143 61.5 37.2143C60.2568 37.2143 59.0645 36.6386 58.1854 35.6138C57.3064 34.5891 56.8125 33.1992 56.8125 31.75C56.8125 30.3008 57.3064 28.9109 58.1854 27.8862C59.0645 26.8614 60.2568 26.2857 61.5 26.2857ZM41.1875 29.9286C39.1155 29.9286 37.1284 30.8881 35.6632 32.596C34.1981 34.3039 33.375 36.6203 33.375 39.0357C33.375 42.46 35.0312 45.4107 37.4062 46.9771C38.5312 47.7057 39.8125 48.1429 41.1875 48.1429C42.5625 48.1429 43.8438 47.7057 44.9688 46.9771C46.125 46.2121 47.0938 45.1193 47.8125 43.8079C45.5312 40.3471 44.3125 36.1214 44.3125 31.75C44.3125 31.4221 44.3125 31.0579 44.3125 30.73C43.375 30.22 42.3125 29.9286 41.1875 29.9286ZM81.8125 29.9286C80.6875 29.9286 79.625 30.22 78.6875 30.73C78.6875 31.0579 78.6875 31.4221 78.6875 31.75C78.6875 36.1214 77.4687 40.3471 75.1875 43.8079C75.5625 44.5 75.9688 45.0464 76.4375 45.5929C76.9375 46.1393 77.4375 46.6129 78.0313 46.9771C79.1563 47.7057 80.4375 48.1429 81.8125 48.1429C83.1875 48.1429 84.4687 47.7057 85.5937 46.9771C87.9687 45.4107 89.625 42.46 89.625 39.0357C89.625 36.6203 88.8019 34.3039 87.3368 32.596C85.8716 30.8881 83.8845 29.9286 81.8125 29.9286ZM61.5 51.7857C54.1875 51.7857 39.625 56.0479 39.625 64.5357V70H83.375V64.5357C83.375 56.0479 68.8125 51.7857 61.5 51.7857ZM38.7188 53.7893C32.6875 54.6271 24 58.1971 24 64.5357V70H33.375V62.9693C33.375 59.29 35.5312 56.23 38.7188 53.7893ZM84.2813 53.7893C87.4688 56.23 89.625 59.29 89.625 62.9693V70H99V64.5357C99 58.1971 90.3125 54.6271 84.2813 53.7893ZM61.5 59.0714C66.2812 59.0714 71.625 60.8929 74.7188 62.7143H48.2812C51.375 60.8929 56.7188 59.0714 61.5 59.0714Z" fill="url(#paint0_linear_143_328)" shape-rendering="crispEdges"/>
</g>
<defs>
<filter id="filter0_d_143_328" x="0" y="0" width="123" height="99" filterUnits="userSpaceOnUse" color-interpolation-filters="sRGB">
<feFlood flood-opacity="0" result="BackgroundImageFix"/>
<feColorMatrix in="SourceAlpha" type="matrix" values="0 0 0 0 0 0 0 0 0 0 0 0 0 0 0 0 0 0 127 0" result="hardAlpha"/>
<feOffset dy="5"/>
<feGaussianBlur stdDeviation="12"/>
<feComposite in2="hardAlpha" operator="out"/>
<feColorMatrix type="matrix" values="0 0 0 0 0.135451 0 0 0 0 0.604758 0 0 0 0 0.691667 0 0 0 0.6 0"/>
<feBlend mode="normal" in2="BackgroundImageFix" result="effect1_dropShadow_143_328"/>
<feBlend mode="normal" in="SourceGraphic" in2="effect1_dropShadow_143_328" result="shape"/>
</filter>
<linearGradient id="paint0_linear_143_328" x1="92.5976" y1="70" x2="24.3311" y2="-7.70163" gradientUnits="userSpaceOnUse">
<stop stop-color="#239AB0"/>
<stop offset="0.911999" stop-color="#A5DBE5" stop-opacity="0.99"/>
</linearGradient>
</defs>
</svg>
