<svg width="51" height="35" viewBox="0 0 51 35" fill="none" xmlns="http://www.w3.org/2000/svg">
<path d="M25.5 0C23.5275 0 21.6357 0.921873 20.2409 2.56282C18.8461 4.20376 18.0625 6.42936 18.0625 8.75C18.0625 11.0706 18.8461 13.2962 20.2409 14.9372C21.6357 16.5781 23.5275 17.5 25.5 17.5C27.4725 17.5 29.3643 16.5781 30.7591 14.9372C32.1539 13.2962 32.9375 11.0706 32.9375 8.75C32.9375 6.42936 32.1539 4.20376 30.7591 2.56282C29.3643 0.921873 27.4725 0 25.5 0ZM25.5 5C26.3454 5 27.1561 5.39509 27.7539 6.09835C28.3517 6.80161 28.6875 7.75544 28.6875 8.75C28.6875 9.74456 28.3517 10.6984 27.7539 11.4017C27.1561 12.1049 26.3454 12.5 25.5 12.5C24.6546 12.5 23.8439 12.1049 23.2461 11.4017C22.6483 10.6984 22.3125 9.74456 22.3125 8.75C22.3125 7.75544 22.6483 6.80161 23.2461 6.09835C23.8439 5.39509 24.6546 5 25.5 5ZM11.6875 7.5C10.2785 7.5 8.92728 8.15848 7.93099 9.33058C6.93471 10.5027 6.375 12.0924 6.375 13.75C6.375 16.1 7.50125 18.125 9.11625 19.2C9.88125 19.7 10.7525 20 11.6875 20C12.6225 20 13.4937 19.7 14.2587 19.2C15.045 18.675 15.7037 17.925 16.1925 17.025C14.6412 14.65 13.8125 11.75 13.8125 8.75C13.8125 8.525 13.8125 8.275 13.8125 8.05C13.175 7.7 12.4525 7.5 11.6875 7.5ZM39.3125 7.5C38.5475 7.5 37.825 7.7 37.1875 8.05C37.1875 8.275 37.1875 8.525 37.1875 8.75C37.1875 11.75 36.3587 14.65 34.8075 17.025C35.0625 17.5 35.3388 17.875 35.6575 18.25C35.9975 18.625 36.3375 18.95 36.7413 19.2C37.5063 19.7 38.3775 20 39.3125 20C40.2475 20 41.1187 19.7 41.8837 19.2C43.4987 18.125 44.625 16.1 44.625 13.75C44.625 12.0924 44.0653 10.5027 43.069 9.33058C42.0727 8.15848 40.7215 7.5 39.3125 7.5ZM25.5 22.5C20.5275 22.5 10.625 25.425 10.625 31.25V35H40.375V31.25C40.375 25.425 30.4725 22.5 25.5 22.5ZM10.0087 23.875C5.9075 24.45 0 26.9 0 31.25V35H6.375V30.175C6.375 27.65 7.84125 25.55 10.0087 23.875ZM40.9913 23.875C43.1588 25.55 44.625 27.65 44.625 30.175V35H51V31.25C51 26.9 45.0925 24.45 40.9913 23.875ZM25.5 27.5C28.7512 27.5 32.385 28.75 34.4888 30H16.5112C18.615 28.75 22.2488 27.5 25.5 27.5Z" fill="#F6FBFC"/>
</svg>
