<svg width="34" height="49" viewBox="0 0 34 49" fill="none" xmlns="http://www.w3.org/2000/svg">
<path d="M17 11.025C18.6102 11.025 20.1545 11.6703 21.2931 12.819C22.4318 13.9676 23.0714 15.5255 23.0714 17.15C23.0714 17.9543 22.9144 18.7508 22.6093 19.4939C22.3042 20.2371 21.8569 20.9123 21.2931 21.481C20.7294 22.0498 20.0601 22.501 19.3234 22.8088C18.5868 23.1166 17.7973 23.275 17 23.275C15.3898 23.275 13.8455 22.6297 12.7069 21.481C11.5682 20.3324 10.9286 18.7745 10.9286 17.15C10.9286 15.5255 11.5682 13.9676 12.7069 12.819C13.8455 11.6703 15.3898 11.025 17 11.025ZM17 0C21.5087 0 25.8327 1.80687 29.0208 5.02312C32.2089 8.23937 34 12.6015 34 17.15C34 30.0125 17 49 17 49C17 49 0 30.0125 0 17.15C0 12.6015 1.79107 8.23937 4.97918 5.02312C8.1673 1.80687 12.4913 0 17 0ZM17 4.9C13.7795 4.9 10.6909 6.19062 8.4137 8.48794C6.13648 10.7853 4.85714 13.9011 4.85714 17.15C4.85714 19.6 4.85714 24.5 17 40.9395C29.1429 24.5 29.1429 19.6 29.1429 17.15C29.1429 13.9011 27.8635 10.7853 25.5863 8.48794C23.3091 6.19062 20.2205 4.9 17 4.9Z" fill="#239AB0"/>
</svg>
