<svg width="43" height="28" viewBox="0 0 43 28" fill="none" xmlns="http://www.w3.org/2000/svg">
<path d="M7.81818 0H43V21H7.81818V0ZM25.4091 5.25C26.9642 5.25 28.4557 5.80312 29.5553 6.78769C30.655 7.77225 31.2727 9.10761 31.2727 10.5C31.2727 11.8924 30.655 13.2277 29.5553 14.2123C28.4557 15.1969 26.9642 15.75 25.4091 15.75C23.854 15.75 22.3625 15.1969 21.2629 14.2123C20.1632 13.2277 19.5455 11.8924 19.5455 10.5C19.5455 9.10761 20.1632 7.77225 21.2629 6.78769C22.3625 5.80312 23.854 5.25 25.4091 5.25ZM15.6364 3.5C15.6364 4.42826 15.2245 5.3185 14.4914 5.97487C13.7583 6.63125 12.764 7 11.7273 7V14C12.764 14 13.7583 14.3687 14.4914 15.0251C15.2245 15.6815 15.6364 16.5717 15.6364 17.5H35.1818C35.1818 16.5717 35.5937 15.6815 36.3268 15.0251C37.0599 14.3687 38.0542 14 39.0909 14V7C38.0542 7 37.0599 6.63125 36.3268 5.97487C35.5937 5.3185 35.1818 4.42826 35.1818 3.5H15.6364ZM0 7H3.90909V24.5H35.1818V28H0V7Z" fill="#F6FBFC"/>
</svg>
