<svg width="33" height="38" viewBox="0 0 33 38" fill="none" xmlns="http://www.w3.org/2000/svg">
<path d="M11 17.1H7.33333V20.9H11V17.1ZM18.3333 17.1H14.6667V20.9H18.3333V17.1ZM25.6667 17.1H22V20.9H25.6667V17.1ZM29.3333 3.8H27.5V0H23.8333V3.8H9.16667V0H5.5V3.8H3.66667C1.63167 3.8 0 5.51 0 7.6V34.2C0 35.2078 0.386308 36.1744 1.07394 36.887C1.76157 37.5996 2.69421 38 3.66667 38H29.3333C30.3058 38 31.2384 37.5996 31.9261 36.887C32.6137 36.1744 33 35.2078 33 34.2V7.6C33 6.59218 32.6137 5.62563 31.9261 4.91299C31.2384 4.20036 30.3058 3.8 29.3333 3.8ZM29.3333 34.2H3.66667V13.3H29.3333V34.2Z" fill="#F6FBFC"/>
</svg>
