<svg width="33" height="34" viewBox="0 0 33 34" fill="none" xmlns="http://www.w3.org/2000/svg">
<path d="M16.5 0C7.425 0 0 6.76222 0 15.1111C0.0825 19.1722 1.749 22.9878 4.5375 25.5C4.5375 26.6333 3.8445 29.5989 0 34C3.9105 33.7922 7.656 32.1111 10.6755 29.2778C12.5565 29.9011 14.5365 30.2222 16.5 30.2222C25.575 30.2222 33 23.46 33 15.1111C33 6.76222 25.575 0 16.5 0ZM16.5 26.4444C9.207 26.4444 3.3 21.3633 3.3 15.1111C3.3 8.85889 9.207 3.77778 16.5 3.77778C23.793 3.77778 29.7 8.85889 29.7 15.1111C29.7 21.3633 23.793 26.4444 16.5 26.4444Z" fill="#F6FBFC"/>
</svg>
