<svg width="11" height="11" viewBox="0 0 11 11" fill="none" xmlns="http://www.w3.org/2000/svg">
<path d="M5.5 9.9C6.66695 9.9 7.78611 9.43643 8.61127 8.61127C9.43643 7.78611 9.9 6.66695 9.9 5.5C9.9 4.33305 9.43643 3.21389 8.61127 2.38873C7.78611 1.56357 6.66695 1.1 5.5 1.1C4.33305 1.1 3.21389 1.56357 2.38873 2.38873C1.56357 3.21389 1.1 4.33305 1.1 5.5C1.1 6.66695 1.56357 7.78611 2.38873 8.61127C3.21389 9.43643 4.33305 9.9 5.5 9.9ZM5.5 0C6.22227 0 6.93747 0.142262 7.60476 0.418663C8.27205 0.695063 8.87837 1.10019 9.38909 1.61091C9.89981 2.12163 10.3049 2.72795 10.5813 3.39524C10.8577 4.06253 11 4.77773 11 5.5C11 6.95869 10.4205 8.35764 9.38909 9.38909C8.35764 10.4205 6.95869 11 5.5 11C2.4585 11 0 8.525 0 5.5C0 4.04131 0.579463 2.64236 1.61091 1.61091C2.64236 0.579463 4.04131 0 5.5 0ZM5.775 2.75V5.6375L8.25 7.106L7.8375 7.7825L4.95 6.05V2.75H5.775Z" fill="#239AB0"/>
</svg>
