<svg width="21" height="46" viewBox="0 0 21 46" fill="none" xmlns="http://www.w3.org/2000/svg">
<path d="M0 0V4.6H2.1V36.8C2.1 39.24 2.985 41.58 4.5603 43.3054C6.13561 45.0307 8.27218 46 10.5 46C12.7278 46 14.8644 45.0307 16.4397 43.3054C18.015 41.58 18.9 39.24 18.9 36.8V4.6H21V0H0ZM8.4 32.2C7.14 32.2 6.3 31.28 6.3 29.9C6.3 28.52 7.14 27.6 8.4 27.6C9.66 27.6 10.5 28.52 10.5 29.9C10.5 31.28 9.66 32.2 8.4 32.2ZM12.6 23C11.34 23 10.5 22.08 10.5 20.7C10.5 19.32 11.34 18.4 12.6 18.4C13.86 18.4 14.7 19.32 14.7 20.7C14.7 22.08 13.86 23 12.6 23ZM14.7 11.5H6.3V4.6H14.7V11.5Z" fill="#F6FBFC"/>
</svg>
