<svg width="33" height="31" viewBox="0 0 33 31" fill="none" xmlns="http://www.w3.org/2000/svg">
<path d="M16.5 9.3C18.2991 9.3 20.0246 9.95321 21.2967 11.1159C22.5689 12.2787 23.2836 13.8557 23.2836 15.5C23.2836 17.1443 22.5689 18.7213 21.2967 19.8841C20.0246 21.0468 18.2991 21.7 16.5 21.7C14.7009 21.7 12.9754 21.0468 11.7033 19.8841C10.4311 18.7213 9.71639 17.1443 9.71639 15.5C9.71639 13.8557 10.4311 12.2787 11.7033 11.1159C12.9754 9.95321 14.7009 9.3 16.5 9.3ZM16.5 12.4C15.6004 12.4 14.7377 12.7266 14.1016 13.308C13.4655 13.8893 13.1082 14.6778 13.1082 15.5C13.1082 16.3222 13.4655 17.1107 14.1016 17.692C14.7377 18.2734 15.6004 18.6 16.5 18.6C17.3996 18.6 18.2623 18.2734 18.8984 17.692C19.5345 17.1107 19.8918 16.3222 19.8918 15.5C19.8918 14.6778 19.5345 13.8893 18.8984 13.308C18.2623 12.7266 17.3996 12.4 16.5 12.4ZM13.1082 31C12.6842 31 12.3281 30.721 12.2602 30.349L11.6328 26.2415C10.5643 25.854 9.64855 25.327 8.76668 24.707L4.54389 26.2725C4.17079 26.3965 3.71289 26.2725 3.50939 25.9315L0.11758 20.5685C-0.102888 20.2275 -0.00113338 19.809 0.321088 19.5765L3.89944 17.0035L3.78073 15.5L3.89944 13.95L0.321088 11.4235C-0.00113338 11.191 -0.102888 10.7725 0.11758 10.4315L3.50939 5.0685C3.71289 4.7275 4.17079 4.588 4.54389 4.7275L8.76668 6.2775C9.64855 5.673 10.5643 5.146 11.6328 4.7585L12.2602 0.651C12.3281 0.279 12.6842 0 13.1082 0H19.8918C20.3158 0 20.6719 0.279 20.7398 0.651L21.3672 4.7585C22.4357 5.146 23.3514 5.673 24.2333 6.2775L28.4561 4.7275C28.8292 4.588 29.2871 4.7275 29.4906 5.0685L32.8824 10.4315C33.1029 10.7725 33.0011 11.191 32.6789 11.4235L29.1006 13.95L29.2193 15.5L29.1006 17.05L32.6789 19.5765C33.0011 19.809 33.1029 20.2275 32.8824 20.5685L29.4906 25.9315C29.2871 26.2725 28.8292 26.412 28.4561 26.2725L24.2333 24.7225C23.3514 25.327 22.4357 25.854 21.3672 26.2415L20.7398 30.349C20.6719 30.721 20.3158 31 19.8918 31H13.1082ZM15.2281 3.1L14.6006 7.1455C12.5655 7.533 10.7678 8.525 9.462 9.9045L5.37488 8.2925L4.10295 10.3075L7.68131 12.71C7.00294 14.5235 7.00294 16.492 7.68131 18.29L4.08599 20.708L5.35792 22.723L9.47896 21.111C10.7848 22.475 12.5655 23.467 14.5836 23.839L15.2111 27.9H17.7889L18.4164 23.8545C20.4345 23.467 22.2152 22.475 23.521 21.111L27.6421 22.723L28.914 20.708L25.3187 18.3055C25.9971 16.492 25.9971 14.5235 25.3187 12.71L28.897 10.3075L27.6251 8.2925L23.538 9.9045C22.2322 8.525 20.4345 7.533 18.3994 7.161L17.7719 3.1H15.2281Z" fill="#F6FBFC"/>
</svg>
