<svg width="17" height="17" viewBox="0 0 17 17" fill="none" xmlns="http://www.w3.org/2000/svg">
<path d="M8.5 0C3.7995 0 0 3.7995 0 8.5C0 13.2005 3.7995 17 8.5 17C10.7543 17 12.9163 16.1045 14.5104 14.5104C16.1045 12.9163 17 10.7543 17 8.5C17 3.7995 13.175 0 8.5 0ZM8.5 15.3C6.69653 15.3 4.96692 14.5836 3.69167 13.3083C2.41643 12.0331 1.7 10.3035 1.7 8.5C1.7 6.69653 2.41643 4.96692 3.69167 3.69167C4.96692 2.41643 6.69653 1.7 8.5 1.7C10.3035 1.7 12.0331 2.41643 13.3083 3.69167C14.5836 4.96692 15.3 6.69653 15.3 8.5C15.3 10.3035 14.5836 12.0331 13.3083 13.3083C12.0331 14.5836 10.3035 15.3 8.5 15.3ZM9.35 6.749L10.251 7.65L11.152 6.749L12.053 7.65L12.954 6.749L11.152 4.947L9.35 6.749ZM5.848 6.749L6.749 7.65L7.65 6.749L5.848 4.947L4.046 6.749L4.947 7.65L5.848 6.749ZM8.5 13.175C10.4805 13.175 12.1635 11.934 12.8435 10.2H4.1565C4.8365 11.934 6.5195 13.175 8.5 13.175Z" fill="#239AB0"/>
</svg>
