<svg width="109" height="257" viewBox="0 0 109 257" fill="none" xmlns="http://www.w3.org/2000/svg">
<path fill-rule="evenodd" clip-rule="evenodd" d="M217.245 222.161C194.28 243.165 163.572 256 129.832 256C95.6213 256 64.529 242.805 41.4633 221.279C40.7112 216.668 40.3204 211.937 40.3204 207.116C40.3204 166.225 68.4374 131.834 106.58 121.848C94.3838 114.211 86.2856 100.742 86.2856 85.4007C86.2856 61.5976 105.782 42.3013 129.832 42.3013C153.881 42.3013 173.378 61.5976 173.378 85.4007C173.378 100.843 165.173 114.388 152.842 121.998C190.697 132.174 218.536 166.428 218.536 207.116C218.536 212.245 218.094 217.272 217.245 222.161ZM216.948 223.779C243.183 200.267 259.663 166.288 259.663 128.5C259.663 57.5314 201.536 0 129.832 0C58.1276 0 0 57.5314 0 128.5C0 163.984 14.5319 196.109 38.0268 219.363C39.2419 220.566 40.4809 221.745 41.7432 222.899C64.888 244.066 95.8338 257 129.832 257C163.356 257 193.913 244.424 216.948 223.779Z" fill="black"/>
</svg>
