<svg width="60" height="60" viewBox="0 0 60 60" fill="none" xmlns="http://www.w3.org/2000/svg">
<g filter="url(#filter0_d_143_133)">
<path d="M40 25C40 27.6522 38.9464 30.1957 37.0711 32.0711C35.1957 33.9464 32.6522 35 30 35C28.6868 35 27.3864 34.7413 26.1732 34.2388C24.9599 33.7362 23.8575 32.9997 22.9289 32.0711C21.0536 30.1957 20 27.6522 20 25C20 22.3478 21.0536 19.8043 22.9289 17.9289C24.8043 16.0536 27.3478 15 30 15C31.3132 15 32.6136 15.2587 33.8268 15.7612C35.0401 16.2638 36.1425 17.0003 37.0711 17.9289C37.9997 18.8575 38.7362 19.9599 39.2388 21.1732C39.7413 22.3864 40 23.6868 40 25ZM28 31L34 25L28 19L26.6 20.4L31.2 25L26.6 29.6L28 31Z" fill="#09798D"/>
</g>
<defs>
<filter id="filter0_d_143_133" x="0" y="0" width="60" height="60" filterUnits="userSpaceOnUse" color-interpolation-filters="sRGB">
<feFlood flood-opacity="0" result="BackgroundImageFix"/>
<feColorMatrix in="SourceAlpha" type="matrix" values="0 0 0 0 0 0 0 0 0 0 0 0 0 0 0 0 0 0 127 0" result="hardAlpha"/>
<feOffset dy="5"/>
<feGaussianBlur stdDeviation="10"/>
<feComposite in2="hardAlpha" operator="out"/>
<feColorMatrix type="matrix" values="0 0 0 0 0.135451 0 0 0 0 0.604758 0 0 0 0 0.691667 0 0 0 1 0"/>
<feBlend mode="normal" in2="BackgroundImageFix" result="effect1_dropShadow_143_133"/>
<feBlend mode="normal" in="SourceGraphic" in2="effect1_dropShadow_143_133" result="shape"/>
</filter>
</defs>
</svg>
