<svg width="12" height="24" viewBox="0 0 12 24" fill="none" xmlns="http://www.w3.org/2000/svg">
<path d="M9.6 13.2V3.6C9.6 2.64522 9.22072 1.72955 8.54559 1.05442C7.87045 0.379285 6.95478 0 6 0C5.04522 0 4.12955 0.379285 3.45442 1.05442C2.77928 1.72955 2.4 2.64522 2.4 3.6V13.2C1.39256 13.9556 0.6484 15.009 0.272919 16.211C-0.102562 17.413 -0.0903236 18.7027 0.3079 19.8974C0.706124 21.092 1.47014 22.1311 2.49174 22.8675C3.51333 23.6038 4.74071 24 6 24C7.2593 24 8.48667 23.6038 9.50826 22.8675C10.5299 22.1311 11.2939 21.092 11.6921 19.8974C12.0903 18.7027 12.1026 17.413 11.7271 16.211C11.3516 15.009 10.6074 13.9556 9.6 13.2ZM6 2.4C6.31826 2.4 6.62348 2.52643 6.84853 2.75147C7.07357 2.97652 7.2 3.28174 7.2 3.6V7.2H4.8V3.6C4.8 3.28174 4.92643 2.97652 5.15147 2.75147C5.37652 2.52643 5.68174 2.4 6 2.4Z" fill="white"/>
</svg>
