<svg width="82" height="88" viewBox="0 0 82 88" fill="none" xmlns="http://www.w3.org/2000/svg">
<g filter="url(#filter0_d_133_1229)">
<path d="M58 24.5714C58 28.2476 55.0344 31.2381 51.3889 31.2381C47.7433 31.2381 44.7778 28.2476 44.7778 24.5714C44.7778 20.8952 47.7433 17.9048 51.3889 17.9048C55.0344 17.9048 58 20.8952 58 24.5714ZM54.2222 34.6476C53.2778 34.8952 52.3333 35.0476 51.3889 35.0476C45.6656 35.0476 41 30.3429 41 24.5714C41 21.7714 42.0956 19.2381 43.8333 17.3524C43.1722 16.5333 42.1522 16 41 16C38.9222 16 37.2222 17.7143 37.2222 19.8095V20.3619C31.6122 22.0381 27.7778 27.2381 27.7778 33.1429V44.5714L24 48.381V50.2857H58V48.381L54.2222 44.5714V34.6476ZM41 56C43.0967 56 44.7778 54.3048 44.7778 52.1905H37.2222C37.2222 54.3048 38.9222 56 41 56Z" fill="#2BB5CE"/>
</g>
<defs>
<filter id="filter0_d_133_1229" x="0" y="0" width="82" height="88" filterUnits="userSpaceOnUse" color-interpolation-filters="sRGB">
<feFlood flood-opacity="0" result="BackgroundImageFix"/>
<feColorMatrix in="SourceAlpha" type="matrix" values="0 0 0 0 0 0 0 0 0 0 0 0 0 0 0 0 0 0 127 0" result="hardAlpha"/>
<feOffset dy="8"/>
<feGaussianBlur stdDeviation="12"/>
<feComposite in2="hardAlpha" operator="out"/>
<feColorMatrix type="matrix" values="0 0 0 0 0.332292 0 0 0 0 0.825358 0 0 0 0 0.916667 0 0 0 1 0"/>
<feBlend mode="normal" in2="BackgroundImageFix" result="effect1_dropShadow_133_1229"/>
<feBlend mode="normal" in="SourceGraphic" in2="effect1_dropShadow_133_1229" result="shape"/>
</filter>
</defs>
</svg>
