<svg width="38" height="44" viewBox="0 0 38 44" fill="none" xmlns="http://www.w3.org/2000/svg">
<path d="M12.6667 19.8H8.44444V24.2H12.6667V19.8ZM21.1111 19.8H16.8889V24.2H21.1111V19.8ZM29.5556 19.8H25.3333V24.2H29.5556V19.8ZM33.7778 4.4H31.6667V0H27.4444V4.4H10.5556V0H6.33333V4.4H4.22222C1.87889 4.4 0 6.38 0 8.8V39.6C0 40.767 0.44484 41.8861 1.23666 42.7113C2.02848 43.5364 3.10242 44 4.22222 44H33.7778C34.8976 44 35.9715 43.5364 36.7633 42.7113C37.5552 41.8861 38 40.767 38 39.6V8.8C38 7.63305 37.5552 6.51389 36.7633 5.68873C35.9715 4.86357 34.8976 4.4 33.7778 4.4ZM33.7778 39.6H4.22222V15.4H33.7778V39.6Z" fill="#F6FBFC"/>
</svg>
