<svg width="39" height="40" viewBox="0 0 39 40" fill="none" xmlns="http://www.w3.org/2000/svg">
<path d="M19.5 0C8.775 0 0 7.95556 0 17.7778C0.0975 22.5556 2.067 27.0444 5.3625 30C5.3625 31.3333 4.5435 34.8222 0 40C4.6215 39.7556 9.048 37.7778 12.6165 34.4444C14.8395 35.1778 17.1795 35.5556 19.5 35.5556C30.225 35.5556 39 27.6 39 17.7778C39 7.95556 30.225 0 19.5 0ZM19.5 31.1111C10.881 31.1111 3.9 25.1333 3.9 17.7778C3.9 10.4222 10.881 4.44444 19.5 4.44444C28.119 4.44444 35.1 10.4222 35.1 17.7778C35.1 25.1333 28.119 31.1111 19.5 31.1111Z" fill="#F6FBFC"/>
</svg>
