<svg width="41" height="35" viewBox="0 0 41 35" fill="none" xmlns="http://www.w3.org/2000/svg">
<path d="M14.35 35C13.12 35 12.3 34.3 12.3 33.25V28H4.1C1.845 28 0 26.425 0 24.5V3.5C0 1.575 1.845 0 4.1 0H36.9C39.155 0 41 1.575 41 3.5V24.5C41 26.425 39.155 28 36.9 28H24.395L16.81 34.475C16.4 34.825 15.99 35 15.375 35H14.35ZM16.4 24.5V29.925L22.755 24.5H36.9V3.5H4.1V24.5H16.4ZM29.315 7L26.445 12.25H30.75V19.25H22.55V11.9L25.215 7H29.315ZM17.015 7L14.145 12.25H18.45V19.25H10.25V11.9L12.915 7H17.015Z" fill="#F6FBFC"/>
</svg>
