<svg width="39" height="33" viewBox="0 0 39 33" fill="none" xmlns="http://www.w3.org/2000/svg">
<path d="M13.65 33C12.48 33 11.7 32.34 11.7 31.35V26.4H3.9C1.755 26.4 0 24.915 0 23.1V3.3C0 1.485 1.755 0 3.9 0H35.1C37.245 0 39 1.485 39 3.3V23.1C39 24.915 37.245 26.4 35.1 26.4H23.205L15.99 32.505C15.6 32.835 15.21 33 14.625 33H13.65ZM15.6 23.1V28.215L21.645 23.1H35.1V3.3H3.9V23.1H15.6ZM27.885 6.6L25.155 11.55H29.25V18.15H21.45V11.22L23.985 6.6H27.885ZM16.185 6.6L13.455 11.55H17.55V18.15H9.75V11.22L12.285 6.6H16.185Z" fill="#F6FBFC"/>
</svg>
