<svg width="33" height="28" viewBox="0 0 33 28" fill="none" xmlns="http://www.w3.org/2000/svg">
<path d="M11.55 28C10.56 28 9.9 27.44 9.9 26.6V22.4H3.3C1.485 22.4 0 21.14 0 19.6V2.8C0 1.26 1.485 0 3.3 0H29.7C31.515 0 33 1.26 33 2.8V19.6C33 21.14 31.515 22.4 29.7 22.4H19.635L13.53 27.58C13.2 27.86 12.87 28 12.375 28H11.55ZM13.2 19.6V23.94L18.315 19.6H29.7V2.8H3.3V19.6H13.2ZM23.595 5.6L21.285 9.8H24.75V15.4H18.15V9.52L20.295 5.6H23.595ZM13.695 5.6L11.385 9.8H14.85V15.4H8.25V9.52L10.395 5.6H13.695Z" fill="#F6FBFC"/>
</svg>
