<svg width="70" height="106" viewBox="0 0 70 106" fill="none" xmlns="http://www.w3.org/2000/svg">
<g filter="url(#filter0_d_143_102)">
<path d="M20 15V21.6H23V67.8C23 71.3009 24.2643 74.6583 26.5147 77.1338C28.7652 79.6093 31.8174 81 35 81C38.1826 81 41.2348 79.6093 43.4853 77.1338C45.7357 74.6583 47 71.3009 47 67.8V21.6H50V15H20ZM32 61.2C30.2 61.2 29 59.88 29 57.9C29 55.92 30.2 54.6 32 54.6C33.8 54.6 35 55.92 35 57.9C35 59.88 33.8 61.2 32 61.2ZM38 48C36.2 48 35 46.68 35 44.7C35 42.72 36.2 41.4 38 41.4C39.8 41.4 41 42.72 41 44.7C41 46.68 39.8 48 38 48ZM41 31.5H29V21.6H41V31.5Z" fill="url(#paint0_linear_143_102)" shape-rendering="crispEdges"/>
</g>
<defs>
<filter id="filter0_d_143_102" x="0" y="0" width="70" height="106" filterUnits="userSpaceOnUse" color-interpolation-filters="sRGB">
<feFlood flood-opacity="0" result="BackgroundImageFix"/>
<feColorMatrix in="SourceAlpha" type="matrix" values="0 0 0 0 0 0 0 0 0 0 0 0 0 0 0 0 0 0 127 0" result="hardAlpha"/>
<feOffset dy="5"/>
<feGaussianBlur stdDeviation="10"/>
<feComposite in2="hardAlpha" operator="out"/>
<feColorMatrix type="matrix" values="0 0 0 0 0.135451 0 0 0 0 0.604758 0 0 0 0 0.691667 0 0 0 0.62 0"/>
<feBlend mode="normal" in2="BackgroundImageFix" result="effect1_dropShadow_143_102"/>
<feBlend mode="normal" in="SourceGraphic" in2="effect1_dropShadow_143_102" result="shape"/>
</filter>
<linearGradient id="paint0_linear_143_102" x1="63.5714" y1="75.2609" x2="19.6836" y2="-22.8802" gradientUnits="userSpaceOnUse">
<stop stop-color="#37A4B8"/>
<stop offset="1" stop-color="#A5DBE5" stop-opacity="0.94"/>
</linearGradient>
</defs>
</svg>
