<svg width="40" height="38" viewBox="0 0 40 38" fill="none" xmlns="http://www.w3.org/2000/svg">
<path d="M20 11.4C22.1808 11.4 24.2722 12.2007 25.8142 13.626C27.3563 15.0513 28.2226 16.9844 28.2226 19C28.2226 21.0156 27.3563 22.9487 25.8142 24.374C24.2722 25.7993 22.1808 26.6 20 26.6C17.8192 26.6 15.7278 25.7993 14.1858 24.374C12.6437 22.9487 11.7774 21.0156 11.7774 19C11.7774 16.9844 12.6437 15.0513 14.1858 13.626C15.7278 12.2007 17.8192 11.4 20 11.4ZM20 15.2C18.9096 15.2 17.8639 15.6004 17.0929 16.313C16.3219 17.0256 15.8887 17.9922 15.8887 19C15.8887 20.0078 16.3219 20.9744 17.0929 21.687C17.8639 22.3996 18.9096 22.8 20 22.8C21.0904 22.8 22.1361 22.3996 22.9071 21.687C23.6781 20.9744 24.1113 20.0078 24.1113 19C24.1113 17.9922 23.6781 17.0256 22.9071 16.313C22.1361 15.6004 21.0904 15.2 20 15.2ZM15.8887 38C15.3748 38 14.9431 37.658 14.8609 37.202L14.1003 32.167C12.8053 31.692 11.6952 31.046 10.6263 30.286L5.50774 32.205C5.0555 32.357 4.50048 32.205 4.2538 31.787L0.142521 25.213C-0.124712 24.795 -0.00137379 24.282 0.389198 23.997L4.7266 20.843L4.5827 19L4.7266 17.1L0.389198 14.003C-0.00137379 13.718 -0.124712 13.205 0.142521 12.787L4.2538 6.213C4.50048 5.795 5.0555 5.624 5.50774 5.795L10.6263 7.695C11.6952 6.954 12.8053 6.308 14.1003 5.833L14.8609 0.798C14.9431 0.342 15.3748 0 15.8887 0H24.1113C24.6252 0 25.0569 0.342 25.1391 0.798L25.8997 5.833C27.1947 6.308 28.3048 6.954 29.3737 7.695L34.4923 5.795C34.9445 5.624 35.4995 5.795 35.7462 6.213L39.8575 12.787C40.1247 13.205 40.0014 13.718 39.6108 14.003L35.2734 17.1L35.4173 19L35.2734 20.9L39.6108 23.997C40.0014 24.282 40.1247 24.795 39.8575 25.213L35.7462 31.787C35.4995 32.205 34.9445 32.376 34.4923 32.205L29.3737 30.305C28.3048 31.046 27.1947 31.692 25.8997 32.167L25.1391 37.202C25.0569 37.658 24.6252 38 24.1113 38H15.8887ZM18.4583 3.8L17.6977 8.759C15.2309 9.234 13.0519 10.45 11.4691 12.141L6.515 10.165L4.97327 12.635L9.31067 15.58C8.48842 17.803 8.48842 20.216 9.31067 22.42L4.95272 25.384L6.49445 27.854L11.4897 25.878C13.0725 27.55 15.2309 28.766 17.6771 29.222L18.4377 34.2H21.5623L22.3229 29.241C24.7691 28.766 26.9275 27.55 28.5103 25.878L33.5056 27.854L35.0473 25.384L30.6893 22.439C31.5116 20.216 31.5116 17.803 30.6893 15.58L35.0267 12.635L33.485 10.165L28.5309 12.141C26.9481 10.45 24.7691 9.234 22.3023 8.778L21.5417 3.8H18.4583Z" fill="#F6FBFC"/>
</svg>
