<svg width="41" height="41" viewBox="0 0 41 41" fill="none" xmlns="http://www.w3.org/2000/svg">
<path d="M8.24555 17.7439C11.5256 24.19 16.81 29.4744 23.2561 32.7544L28.2672 27.7433C28.905 27.1056 29.7933 26.9233 30.5906 27.1739C33.1417 28.0167 35.875 28.4722 38.7222 28.4722C39.3263 28.4722 39.9057 28.7122 40.3329 29.1394C40.76 29.5665 41 30.1459 41 30.75V38.7222C41 39.3263 40.76 39.9057 40.3329 40.3329C39.9057 40.76 39.3263 41 38.7222 41C28.4524 41 18.6033 36.9203 11.3415 29.6585C4.07965 22.3967 0 12.5475 0 2.27778C0 1.67367 0.239979 1.09431 0.667146 0.667146C1.09431 0.239979 1.67367 0 2.27778 0H10.25C10.8541 0 11.4335 0.239979 11.8606 0.667146C12.2878 1.09431 12.5278 1.67367 12.5278 2.27778C12.5278 5.125 12.9833 7.85833 13.8261 10.4094C14.0767 11.2067 13.8944 12.095 13.2567 12.7328L8.24555 17.7439Z" fill="#239AB0"/>
</svg>
