<svg width="27" height="27" viewBox="0 0 27 27" fill="none" xmlns="http://www.w3.org/2000/svg">
<path d="M0 13.5C0 9.91958 1.42232 6.4858 3.95406 3.95406C6.4858 1.42232 9.91958 0 13.5 0C15.2728 0 17.0283 0.349188 18.6662 1.02763C20.3041 1.70606 21.7924 2.70047 23.0459 3.95406C24.2995 5.20765 25.2939 6.69588 25.9724 8.33377C26.6508 9.97167 27 11.7272 27 13.5C27 17.0804 25.5777 20.5142 23.0459 23.0459C20.5142 25.5777 17.0804 27 13.5 27C11.7272 27 9.97167 26.6508 8.33377 25.9724C6.69588 25.2939 5.20765 24.2995 3.95406 23.0459C1.42232 20.5142 0 17.0804 0 13.5ZM21.6 12.15H10.8L15.525 7.425L13.608 5.508L5.616 13.5L13.608 21.492L15.525 19.575L10.8 14.85H21.6V12.15Z" fill="white"/>
</svg>
