<svg width="64" height="52" viewBox="0 0 64 52" fill="none" xmlns="http://www.w3.org/2000/svg">
<path d="M64 6.11765C61.6444 7.18824 59.1052 7.89177 56.4742 8.22824C59.1664 6.60706 61.2467 4.03765 62.2256 0.948235C59.6864 2.47765 56.8719 3.54824 53.9044 4.16C51.4876 1.52941 48.0918 0 44.2371 0C37.0478 0 31.174 5.87294 31.174 13.1224C31.174 14.1624 31.2964 15.1718 31.5105 16.12C20.6195 15.5694 10.9216 10.3388 4.46654 2.41647C3.33461 4.34353 2.69216 6.60706 2.69216 8.99294C2.69216 13.5506 4.98662 17.5882 8.53537 19.8824C6.36329 19.8824 4.34417 19.2706 2.56979 18.3529C2.56979 18.3529 2.56979 18.3529 2.56979 18.4447C2.56979 24.8071 7.09752 30.1294 13.0937 31.3224C11.9924 31.6282 10.8298 31.7812 9.63671 31.7812C8.81071 31.7812 7.9847 31.6894 7.18929 31.5365C8.8413 36.7059 13.6444 40.56 19.4264 40.6518C14.9598 44.2 9.30019 46.28 3.12046 46.28C2.08031 46.28 1.04015 46.2188 0 46.0965C5.81262 49.8282 12.7266 52 20.13 52C44.2371 52 57.4838 31.9953 57.4838 14.6518C57.4838 14.0706 57.4837 13.52 57.4532 12.9388C60.0229 11.1035 62.2256 8.77882 64 6.11765Z" fill="white"/>
</svg>
