<svg width="56" height="56" viewBox="0 0 56 56" fill="none" xmlns="http://www.w3.org/2000/svg">
<path d="M28 0C12.6 0 0 12.6225 0 28.1687C0 42.2249 10.248 53.8916 23.632 56V36.3213H16.52V28.1687H23.632V21.9558C23.632 14.8996 27.804 11.0201 34.216 11.0201C37.268 11.0201 40.46 11.5542 40.46 11.5542V18.498H36.932C33.46 18.498 32.368 20.6627 32.368 22.8835V28.1687H40.152L38.892 36.3213H32.368V56C38.966 54.9538 44.9741 51.5737 49.3077 46.4701C53.6414 41.3664 56.0149 34.8753 55.9999 28.1687C55.9999 12.6225 43.3999 0 28 0Z" fill="white"/>
</svg>
