<svg width="13" height="9" viewBox="0 0 13 9" fill="none" xmlns="http://www.w3.org/2000/svg">
<path d="M6.5 2.7C6.02984 2.7 5.57894 2.88964 5.24649 3.22721C4.91404 3.56477 4.72727 4.02261 4.72727 4.5C4.72727 4.97739 4.91404 5.43523 5.24649 5.77279C5.57894 6.11036 6.02984 6.3 6.5 6.3C6.97016 6.3 7.42106 6.11036 7.75351 5.77279C8.08596 5.43523 8.27273 4.97739 8.27273 4.5C8.27273 4.02261 8.08596 3.56477 7.75351 3.22721C7.42106 2.88964 6.97016 2.7 6.5 2.7ZM6.5 7.5C5.71641 7.5 4.96491 7.18393 4.41082 6.62132C3.85674 6.05871 3.54545 5.29565 3.54545 4.5C3.54545 3.70435 3.85674 2.94129 4.41082 2.37868C4.96491 1.81607 5.71641 1.5 6.5 1.5C7.28359 1.5 8.03509 1.81607 8.58918 2.37868C9.14326 2.94129 9.45455 3.70435 9.45455 4.5C9.45455 5.29565 9.14326 6.05871 8.58918 6.62132C8.03509 7.18393 7.28359 7.5 6.5 7.5ZM6.5 0C3.54545 0 1.02227 1.866 0 4.5C1.02227 7.134 3.54545 9 6.5 9C9.45455 9 11.9777 7.134 13 4.5C11.9777 1.866 9.45455 0 6.5 0Z" fill="white"/>
</svg>
