<svg width="136" height="112" viewBox="0 0 136 112" fill="none" xmlns="http://www.w3.org/2000/svg">
<g filter="url(#filter0_d_133_808)">
<path d="M72 32C72 36.2435 70.3143 40.3131 67.3137 43.3137C64.3131 46.3143 60.2435 48 56 48C51.7565 48 47.6869 46.3143 44.6863 43.3137C41.6857 40.3131 40 36.2435 40 32C40 27.7565 41.6857 23.6869 44.6863 20.6863C47.6869 17.6857 51.7565 16 56 16C60.2435 16 64.3131 17.6857 67.3137 20.6863C70.3143 23.6869 72 27.7565 72 32ZM88 72V80H24V72C24 63.16 38.32 56 56 56C73.68 56 88 63.16 88 72ZM102 58V64H96V58H102ZM94 38H88V36C88 32.8174 89.2643 29.7652 91.5147 27.5147C93.7652 25.2643 96.8174 24 100 24C103.183 24 106.235 25.2643 108.485 27.5147C110.736 29.7652 112 32.8174 112 36C112 39.88 110 43.52 106.84 45.64L105.64 46.4C103.36 48 102 50.44 102 53.2V54H96V53.2C96 48.44 98.4 44 102.36 41.4L103.52 40.64C105.08 39.6 106 37.88 106 36C106 34.4087 105.368 32.8826 104.243 31.7574C103.117 30.6321 101.591 30 100 30C98.4087 30 96.8826 30.6321 95.7574 31.7574C94.6321 32.8826 94 34.4087 94 36V38Z" fill="url(#paint0_linear_133_808)" shape-rendering="crispEdges"/>
</g>
<defs>
<filter id="filter0_d_133_808" x="0" y="0" width="136" height="112" filterUnits="userSpaceOnUse" color-interpolation-filters="sRGB">
<feFlood flood-opacity="0" result="BackgroundImageFix"/>
<feColorMatrix in="SourceAlpha" type="matrix" values="0 0 0 0 0 0 0 0 0 0 0 0 0 0 0 0 0 0 127 0" result="hardAlpha"/>
<feOffset dy="8"/>
<feGaussianBlur stdDeviation="12"/>
<feComposite in2="hardAlpha" operator="out"/>
<feColorMatrix type="matrix" values="0 0 0 0 0.629094 0 0 0 0 0.933333 0 0 0 0 0.318889 0 0 0 0.78 0"/>
<feBlend mode="normal" in2="BackgroundImageFix" result="effect1_dropShadow_133_808"/>
<feBlend mode="normal" in="SourceGraphic" in2="effect1_dropShadow_133_808" result="shape"/>
</filter>
<linearGradient id="paint0_linear_133_808" x1="82.5" y1="90.5" x2="18" y2="6.5" gradientUnits="userSpaceOnUse">
<stop stop-color="#72B331"/>
<stop offset="0.829224" stop-color="#9ED862" stop-opacity="0.88"/>
</linearGradient>
</defs>
</svg>
