<svg width="14" height="15" viewBox="0 0 14 15" fill="none" xmlns="http://www.w3.org/2000/svg">
<path d="M5.93211 8.64417C6.24263 8.96064 6.24263 9.47998 5.93211 9.79646C5.63673 10.1129 5.15202 10.1129 4.85664 9.79646C3.37977 8.21409 3.37977 5.64174 4.85664 4.05937L7.53773 1.18677C9.01461 -0.395591 11.4155 -0.395591 12.8923 1.18677C14.3692 2.76914 14.3692 5.34149 12.8923 6.92386L11.7639 8.13295C11.7714 7.46754 11.673 6.80214 11.4609 6.16919L11.8169 5.77969C12.7106 4.83027 12.7106 3.28848 11.8169 2.33906C10.9308 1.38153 9.49175 1.38153 8.60563 2.33906L5.93211 5.20354C5.03841 6.15296 5.03841 7.69475 5.93211 8.64417ZM8.06789 5.20354C8.36327 4.88707 8.84799 4.88707 9.14336 5.20354C10.6202 6.78591 10.6202 9.35826 9.14336 10.9406L6.46227 13.8132C4.98539 15.3956 2.58453 15.3956 1.10765 13.8132C-0.369218 12.2309 -0.369218 9.65851 1.10765 8.07614L2.23614 6.86705C2.22856 7.53246 2.32702 8.19786 2.53909 8.83892L2.18312 9.22031C1.28942 10.1697 1.28942 11.7115 2.18312 12.6609C3.06925 13.6185 4.50825 13.6185 5.39437 12.6609L8.06789 9.79646C8.96159 8.84704 8.96159 7.30525 8.06789 6.35583C7.75737 6.03936 7.75737 5.52002 8.06789 5.20354Z" fill="#5A8D26"/>
</svg>
