<svg width="391" height="363" viewBox="0 0 391 363" fill="none" xmlns="http://www.w3.org/2000/svg">
<path d="M39.1 108.9H117.3V36.3C117.3 26.6726 121.419 17.4396 128.752 10.632C136.085 3.82445 146.03 0 156.4 0H234.6C244.97 0 254.915 3.82445 262.248 10.632C269.581 17.4396 273.7 26.6726 273.7 36.3V108.9H351.9C362.27 108.9 372.215 112.724 379.548 119.532C386.881 126.34 391 135.573 391 145.2V217.8C391 227.427 386.881 236.66 379.548 243.468C372.215 250.276 362.27 254.1 351.9 254.1H273.7V326.7C273.7 336.327 269.581 345.56 262.248 352.368C254.915 359.176 244.97 363 234.6 363H156.4C146.03 363 136.085 359.176 128.752 352.368C121.419 345.56 117.3 336.327 117.3 326.7V254.1H39.1C28.73 254.1 18.7848 250.276 11.4521 243.468C4.11945 236.66 0 227.427 0 217.8V145.2C0 135.573 4.11945 126.34 11.4521 119.532C18.7848 112.724 28.73 108.9 39.1 108.9ZM39.1 145.2V217.8H117.3V145.2H39.1Z" fill="#B4ADAD"/>
</svg>
