<svg width="107" height="107" viewBox="0 0 107 107" fill="none" xmlns="http://www.w3.org/2000/svg">
<g filter="url(#filter0_d_133_1999)">
<path d="M53.5 16C57.4119 16 61.1637 17.554 63.9298 20.3202C66.696 23.0863 68.25 26.8381 68.25 30.75C68.25 34.6619 66.696 38.4137 63.9298 41.1798C61.1637 43.946 57.4119 45.5 53.5 45.5C49.5881 45.5 45.8363 43.946 43.0702 41.1798C40.304 38.4137 38.75 34.6619 38.75 30.75C38.75 26.8381 40.304 23.0863 43.0702 20.3202C45.8363 17.554 49.5881 16 53.5 16ZM53.5 52.875C69.7988 52.875 83 59.4756 83 67.625V75H24V67.625C24 59.4756 37.2013 52.875 53.5 52.875Z" fill="url(#paint0_linear_133_1999)" shape-rendering="crispEdges"/>
</g>
<defs>
<filter id="filter0_d_133_1999" x="0" y="0" width="107" height="107" filterUnits="userSpaceOnUse" color-interpolation-filters="sRGB">
<feFlood flood-opacity="0" result="BackgroundImageFix"/>
<feColorMatrix in="SourceAlpha" type="matrix" values="0 0 0 0 0 0 0 0 0 0 0 0 0 0 0 0 0 0 127 0" result="hardAlpha"/>
<feOffset dy="8"/>
<feGaussianBlur stdDeviation="12"/>
<feComposite in2="hardAlpha" operator="out"/>
<feColorMatrix type="matrix" values="0 0 0 0 0.629094 0 0 0 0 0.933333 0 0 0 0 0.318889 0 0 0 0.65 0"/>
<feBlend mode="normal" in2="BackgroundImageFix" result="effect1_dropShadow_133_1999"/>
<feBlend mode="normal" in="SourceGraphic" in2="effect1_dropShadow_133_1999" result="shape"/>
</filter>
<linearGradient id="paint0_linear_133_1999" x1="78" y1="81.5" x2="28.5" y2="12" gradientUnits="userSpaceOnUse">
<stop stop-color="#72B330"/>
<stop offset="1" stop-color="#C1F78A" stop-opacity="0.88"/>
</linearGradient>
</defs>
</svg>
