<svg width="41" height="28" viewBox="0 0 41 28" fill="none" xmlns="http://www.w3.org/2000/svg">
<path d="M20.5 0C18.9142 0 17.3934 0.737498 16.2721 2.05025C15.1508 3.36301 14.5208 5.14348 14.5208 7C14.5208 8.85652 15.1508 10.637 16.2721 11.9497C17.3934 13.2625 18.9142 14 20.5 14C22.0858 14 23.6066 13.2625 24.7279 11.9497C25.8492 10.637 26.4792 8.85652 26.4792 7C26.4792 5.14348 25.8492 3.36301 24.7279 2.05025C23.6066 0.737498 22.0858 0 20.5 0ZM20.5 4C21.1796 4 21.8314 4.31607 22.312 4.87868C22.7925 5.44129 23.0625 6.20435 23.0625 7C23.0625 7.79565 22.7925 8.55871 22.312 9.12132C21.8314 9.68393 21.1796 10 20.5 10C19.8204 10 19.1686 9.68393 18.688 9.12132C18.2075 8.55871 17.9375 7.79565 17.9375 7C17.9375 6.20435 18.2075 5.44129 18.688 4.87868C19.1686 4.31607 19.8204 4 20.5 4ZM9.39583 6C8.26314 6 7.17684 6.52678 6.3759 7.46447C5.57496 8.40215 5.125 9.67392 5.125 11C5.125 12.88 6.03042 14.5 7.32875 15.36C7.94375 15.76 8.64417 16 9.39583 16C10.1475 16 10.8479 15.76 11.4629 15.36C12.095 14.94 12.6246 14.34 13.0175 13.62C11.7704 11.72 11.1042 9.4 11.1042 7C11.1042 6.82 11.1042 6.62 11.1042 6.44C10.5917 6.16 10.0108 6 9.39583 6ZM31.6042 6C30.9892 6 30.4083 6.16 29.8958 6.44C29.8958 6.62 29.8958 6.82 29.8958 7C29.8958 9.4 29.2296 11.72 27.9825 13.62C28.1875 14 28.4096 14.3 28.6658 14.6C28.9392 14.9 29.2125 15.16 29.5371 15.36C30.1521 15.76 30.8525 16 31.6042 16C32.3558 16 33.0562 15.76 33.6712 15.36C34.9696 14.5 35.875 12.88 35.875 11C35.875 9.67392 35.425 8.40215 34.6241 7.46447C33.8232 6.52678 32.7369 6 31.6042 6ZM20.5 18C16.5025 18 8.54167 20.34 8.54167 25V28H32.4583V25C32.4583 20.34 24.4975 18 20.5 18ZM8.04625 19.1C4.74917 19.56 0 21.52 0 25V28H5.125V24.14C5.125 22.12 6.30375 20.44 8.04625 19.1ZM32.9538 19.1C34.6963 20.44 35.875 22.12 35.875 24.14V28H41V25C41 21.52 36.2508 19.56 32.9538 19.1ZM20.5 22C23.1138 22 26.035 23 27.7262 24H13.2738C14.965 23 17.8862 22 20.5 22Z" fill="#F6FBFC"/>
</svg>
